<svg xmlns="http://www.w3.org/2000/svg" xmlns:xlink="http://www.w3.org/1999/xlink" version="1.1" preserveAspectRatio="none" viewBox="0 0 800 600" width="1600" height="1200" style="background:#9d6f4e;">
      <path transform="translate(0, 0)" fill="#ffffff" fill-rule="evenodd" d="M330.9866781411,378.8292023722L330.2183476764,378.9531266407L329.3591394148,379.0026963481L327.0541480206,379.6388409264L326.2858175559,380.31216278527495L326.029707401,381.3903039213L326.0710154905,381.8199080521L326.11232358,382.2495121829L326.2858175559,382.9269648507L326.5419277108,383.5300629574L326.7154216867,384.0835913567L326.8806540447,384.471887398L336.7119793459,406.0099252638L343.3791049914,387.0329889471L343.5939070568,386.4381524583L343.8913253012,385.7524381725L344.8744578313,383.0178426476L345.227641996525,381.950028534L345.3453700516,381.3076877422L345.10991394145003,380.260527673375L344.403545611,379.5149166579L343.2283304647,379.062593077875L341.586333907,378.9118185512L341.2393459552,378.9118185512L341.2393459552,377.5486515977L352.7808261618,377.5486515977L352.7808261618,378.8292023722L351.6655077452,379.1679287061L350.3849569707,379.8536429918L349.534010327,380.9689614083L349.1044061962,381.75588051335L348.6748020654,382.7617324927L335.5140447504,417.5431438524L334.3161101549,420.5751576218L333.1264371773,423.2684450572L331.8262650602375,425.94985641691875L330.49511187605003,428.268789291275L329.1329776247375,430.22524368026876L327.7398623063,431.8192195839L326.25845094659996,433.05174970440004L324.6396901893,433.9321283619L322.8835800344,434.46035555640003L320.9901204819,434.6364312879L319.6966609293875,434.561560375675L318.55913941475,434.33694763899996L317.57755593798754,433.962593077875L316.7519104991,433.4384966923L315.5457142857,432.1827307715L314.9178313253,430.7947789643L314.7939070568,430.1916808576L314.7443373494,429.6794605478L314.76705679862505,429.415088774975L314.8352151463,428.9524381725L315.1739414802,427.8040732844L316.4131841652,426.515260892L317.42729776245005,426.06913352540005L318.8503614458,425.9204244032L319.4865060241,425.9617324927L320.1309122203,426.0939183791L321.2875387263,426.350028534L322.3532874354,426.6887548679L323.8073321859,427.2009751777L324.9143889845,427.4570853326L325.79580034420627,427.32644849955625L326.639001721125,426.934538000425L327.4439931152562,426.28135383520623L328.2107745266,425.3668960039L329.5883993115,423.173436451375L330.7305679862,420.7899596872L331.62695352835004,418.66465848235L332.2672289156,416.7335052982L332.65139414795004,415.22782543585L332.7794492254,414.3789441966L332.57703958685,413.5362591708L331.9698106712,412.032644713L330.1274698795,408.141422682L330.08616179,407.9266206166L329.9622375215,407.7200801691L328.5081927711,404.8119906682L327.909225473275,403.57068257872504L327.4837521514,402.5896154531L317.7350430292,381.4811817182L316.7106024096,380.1923693257L315.5126678141,379.424038861L314.364302926,379.0440044376L313.3811703958,378.8292023722L313.3811703958,377.5486515977L330.9866781411,377.5486515977ZM185.6036006884,361.050200651L183.3135834767,361.32644849953743L181.4831187607,361.72558791434994L180.1122065404,362.2476188954374L179.2008468158,362.8925414428L178.60084681581247,363.7904760383125L178.17227538724998,365.07980478185L177.9151325301125,366.76052767341247L177.8294182444,368.832644713L177.8294182444,396.0959837836L177.9120344234,399.5576016837L178.4242547332,403.5314398937L179.02632013766876,405.3706825787375L179.890691910475,407.12937448925004L181.01737005161874,408.8075156252375L182.4063545611,410.4051059867L184.1867332185625,411.7713710469125L186.49585542165,412.74727466135L189.33372117036248,413.33281683001246L192.7003304647,413.5279975529L195.127180722875,413.41026949782497L197.36814457830002,413.05708533259997L199.423222030975,412.46844505722504L201.2924130809,411.6443486717L202.9607435455875,410.636947638975L204.42150086055,409.4901318042L205.67468502578748,408.20390116737497L206.7202960413,406.7782557285L207.4968881239,405.068100823125L208.1247710843,402.845725608L208.37055421682498,401.4355707026437L208.54611359719996,399.6835913566749L208.65144922542498,397.5897875700937L208.6865611015,395.1541593429L208.6865611015,371.9885827509L208.577094664325,368.9152608920125L208.24869535279998,366.44503713985L207.70136316692498,364.57791149441255L206.9350981067,363.3138839557L205.882258175525,362.459322854125L204.4834629948,361.8123349023L202.73871256452503,361.372920100225L200.6480068847,361.1410784479L200.6480068847,359.4309235426L220.4758898451,359.4309235426L220.4758898451,361.050200651L218.21117383821252,361.42868602105005L216.37399655765,361.9610440245L214.96435800341249,362.64727466135L213.9822581755,363.4873779316L213.3099690188875,364.7121627852875L212.82976247845,366.55243817255L212.5416385541875,369.0082040933875L212.4455972461,372.0794605478L212.4455972461,394.2949510813L212.4125507745,396.432644713L212.3134113597,398.9131954875L212.005666092925,401.585828878225L211.3302788296,404.2997703584L210.44783476761248,406.68014901588754L209.16366953525,408.95519204514994L207.47778313251249,411.12489944618744L205.3901755594,413.189271219L204.15506368332188,414.1303211329453L202.73406540448752,414.9458977250313L201.12718072289692,415.6360009952578L199.33440963855003,416.200630943625L197.3557521514469,416.6397875701328L195.19120826158752,416.95347087478126L192.8407779689719,417.1416808575703L190.3044612736,417.2044175185L185.91650946636875,416.9798047818375L182.154375215075,416.30596657185004L179.01805851971875,415.18290288853746L176.5075593803,413.6106137319L174.48501204815,411.76930564239376L172.8208123924,409.830923542575L171.51496041305,407.79546743244373L170.5674561101,405.662937312L169.689659208225,402.6639700142L169.2869053356,399.8137118386L169.156784853675,397.34142268200003L169.1134113597,395.4928856768L169.1134113597,368.7417669161L169.02511531839374,366.6051059866687L168.760227194475,364.895983783575L168.31874698794374,363.61440030681877L167.7006746988,362.7603555564L166.7784716006625,362.1789441966437L165.42459896725,361.715260891975L163.6390567985625,361.3693056423938L161.4218450946,361.1410784479L161.4218450946,359.4309235426L185.6036006884,359.4309235426ZM407.9064716007,377.4577738008L405.9402065404,377.4577738008L404.9374526677813,374.25794591781255L403.556729776225,371.32558791434997L401.7980378657312,368.66069979041254L399.6613769363,366.263281546L397.1312564543687,364.2825586544312L394.200447504275,362.86775658902496L390.86895008601874,362.01887534978124L387.1367641996,361.7359149367L384.955697074,361.8598392052L382.6920137693,362.3307514256L380.47996557655,363.00407328445L378.2885714285,363.9995982414L376.20870912217504,365.3152608919751L374.3147332186,366.9489958317L373.8025129087,367.4612161416L373.2902925989,368.0560526304L372.1641308089063,369.4264484995688L371.090636833025,371.059150737075L370.0698106712563,372.95415934291873L369.1016523236,375.1114743171L368.2811703958625,377.62868602106244L367.69511187604996,380.61164643415L367.34347676416246,384.0603555563625L367.2262650602,387.9748133877L367.3270826161375,391.25351390405467L367.62953528394996,394.29443473021877L368.1336230636374,397.0975758661922L368.8393459552,399.66293731197504L369.74670395863745,401.9905190675672L370.85569707394995,404.0803211329688L372.1663253011375,405.93234350817966L373.6785886402,407.5465861932L377.003373493925,410.16345366306876L380.525404475,412.032644712975L384.24468158342495,413.1541593429188L388.1612048192,413.5279975529L390.562237521475,413.43195624481245L392.8083648881,413.14383232054996L394.89958691907503,412.6636257801125L396.8359036144,411.9913366235L400.266540447475,410.388582750875L403.1229948365,408.6536429918L405.642788296,406.6047617526L406.634182444025,405.66500271645L407.4768674699,404.8946068472L409.0135283993,406.3486515977L408.92574870911255,406.52834178702506L408.66240963855,406.8939183791L408.22351118761253,407.445381373925L407.6090533563,408.1827307715L405.845197934575,409.92593214842503L403.3791049914,411.8178426476L400.171531841625,413.771715280975L396.1997590361,415.5355707027L393.91748709117496,416.2656911846125L391.4328055077,416.78720581454996L388.74571428567504,417.1001145925125L385.8562134251,417.2044175185L384.4847848537,417.163109429L383.2042340791,417.1135397216L378.43779690182504,416.3529545236687L373.8789328743,414.8395293945749L369.527641996525,412.57326433431865L365.3839242685,409.5541593429L363.49214285713276,407.7287290503109L361.8525989672812,405.64796312949375L360.4652925989453,403.3118615804484L359.330223752125,400.720424403175L358.4473924268203,397.8736515976734L357.8167986230312,394.77154316394376L357.4384423407578,391.4140991019859L357.31232358,387.8013194118L357.45315834764216,384.31788567685936L357.87566265056876,381.04693042728746L358.5798364887797,377.9884536630844L359.56567986227503,375.14245538425L360.83319277105466,372.5089355907844L362.3823752151187,370.0878942826875L364.21322719446715,367.87933145995936L366.3257487091,365.8832471226L368.6106024096188,364.1095810296703L370.958450946625,362.57240374913124L373.3692943201188,361.27171528098285L375.8431325301,360.207515625225L378.3799655765688,359.37980478185784L380.979793459525,358.7885827508813L383.64261617896875,358.4338495322953L386.3684337349,358.3156051261L389.1009638554,358.42300615880004L391.6641308089,358.7452092569L393.993907056775,359.19546743245L396.0262650602,359.6870336975L397.84175559380003,360.24056209680003L399.355697074,360.7114743171L400.555697073975,361.0336774152L401.4128399311,361.1410784479L401.68753872627497,361.12868602105004L402.1811703958,361.0915087405L403.4617211704,360.7114743171L404.568777969,359.9018357629L405.0231669535,359.22438309510005L405.3453700516,358.3156051261L407.1381411359,358.2329889471ZM301.3282134251,366.6846240589L301.501707401,366.9076877422L301.58432358,367.7173262965L301.58432358,377.5486515977L310.2177142857,377.5486515977L310.2177142857,380.2832471226L301.58432358,380.2832471226L301.58432358,406.2164657113L301.7578175559,407.8853125271L302.11100172112504,409.53143989370005L302.823566265,411.0495121829L303.3564406195938,411.68565676120005L304.05454733217505,412.14004574570004L304.9178864027438,412.4126791364L305.9464578313,412.5035569333L307.29310154899997,412.352782406625L308.4249432013,411.9004588266L310.1350981067,410.6199080521L310.7299345955,410.0250715632L311.1595387263,409.5128512534L312.2665955249,410.3637978972L310.52545955245,412.865002716425L308.2101411359,414.8994261243L306.891896729725,415.69409049610005L305.54783476759997,416.2853125271L304.177955249525,416.6730922173L302.7822581755,416.8574295667L302.2700378657,416.8574295667L300.7049776247624,416.72162922246247L299.25661273664997,416.31422818975L297.92494320136245,415.63522646856256L296.7099690189,414.6846240589L295.70153528398123,413.3297187232937L294.98122547332497,411.44606984207496L294.54903958693126,409.03367741524374L294.4049776248,406.0925414428L294.4049776248,380.2832471226L289.8776110155,380.2832471226L289.6628089501,380.1097531467L289.5306230637,379.7710268128L289.6215008606,379.3827307715L289.8776110155,379.0026963481L290.497232358,378.4780836114501L291.3316557659,377.9286860211L292.29413425125,377.2574295667L293.2979208261,376.3507170021L294.8345817556,374.7231782758L296.1977487091,373.1865173464L296.7099690189,372.5008030607L297.2304509466,371.8233503929L298.9323442341,369.5100973808L299.876234079175,368.1448650228L300.9894870912,366.6102694978ZM436.8664578312688,377.05760168377503L440.49950430287504,378.0711989299L443.7649087779188,379.730235074475L446.6626712564,382.0347101175L447.93483132524375,383.41181855123284L449.03737005157495,384.91594936018123L449.97028743539374,386.5471025443453L450.7335834767,388.30527810372496L451.32725817549374,390.1904760383203L451.75131153177495,392.2026963481312L452.00574354554374,394.3419390331578L452.0905542168,396.6082040934L451.8757521514,399.5576016837L451.1487297762,402.5896154531L450.1986437176937,405.2240388610125L448.885046471575,407.74073421385003L447.20793803784375,410.1397015116125L445.1673184165,412.4209407543L442.7476970739812,414.361904609725L439.93358347672495,415.7483073636L436.72497762473125,416.58014901592503L433.121879518,416.8574295667L431.0963631668984,416.7666808575781L429.16714629944374,416.49443473021245L427.3342289156359,416.04069118460313L425.59761101547497,415.40545022074997L423.957292598961,414.5887118386531L422.4132736660937,413.5904760383125L420.96555421687344,412.4107428197281L419.6141342513,411.0495121829L417.3334113597375,407.9689614083438L415.70432358005,404.535226468575L414.7268709122375,400.74830736359377L414.4010533563,396.6082040934L414.7108640275562,392.79340202798124L415.64029604132503,389.214056072725L417.1893493976063,385.8701662276312L419.3580240964,382.7617324927L420.6534199655891,381.3598392052703L422.06112220310627,380.14486502283125L423.58113080895157,379.1168099453827L425.213445783125,378.27567397292495L426.95806712562654,377.62145710545775L428.81499483645626,377.1541593429812L430.78422891561405,376.87378068549526L432.8657693631,376.780321133ZM562.60931497415,377.0069992741312L565.2829810671001,377.68703369752495L567.71499483645,378.8204244031812L569.9053562822,380.4071713911L571.7626712563875,382.52111287131873L573.18728399305,385.227825435875L574.1791944921874,388.5273090847687L574.7384027538,392.419563818L548.1525163511,392.3286860211L548.6110361445562,396.6934020279875L549.383497418225,400.38582887825L550.4699001721062,403.40596657188746L551.8702444062,405.7538151089L553.4662857142625,407.56930564243123L555.13151807225,409.000630943625L556.8659414801625,410.04779101248124L558.669555938,410.710785849L560.2062168674,410.9668960039L561.7428777969,411.0495121829L563.6265266781436,410.9426275013125L565.3449432013749,410.62197345655L566.8981273665937,410.0875500486125L568.2860791738,409.3393572775L570.665425129075,407.544520788725L572.5986437177,405.580321133L573.9700722891,403.7379803412L574.9945129087,402.0773951433L576.3576798623,402.5896154531L575.942533562825,403.775157621775L575.2093149742,405.4481352466L574.106388984475,407.42679273365L572.5986437177,409.5128512534L570.1180929432,412.19168085755L566.9559586919,414.593746262L565.0976110154688,415.58410770780625L563.025493975875,416.291508740525L560.7396075731187,416.71594936015623L558.2399518072,416.8574295667L554.86095008605,416.54503713985L551.8124130809,415.6078598593L549.09434079175,414.04589772504994L546.7067332186,411.8591507371L544.7621549053438,409.1064829229875L543.373170395875,405.8467583102499L542.5397796901938,402.0799768988875L542.2619827883,397.8061386889L542.4860791738374,393.69546743243745L543.15836833045,390.08772216565L544.2788502581375,386.9829028885375L545.8475249569,384.3810096011L547.6919311531251,382.21749841349373L549.6313459552,380.427825435875L551.665769363125,379.01199066824375L553.7952013769,377.9699941106L556.8272151463,377.0777393774L559.6939965576,376.780321133ZM600.8052943201,376.862937312L602.3419552495,377.1190474669L605.6713872633,378.102179997L607.1688055077,378.75484781110003L608.4059827883,379.424038861L609.9095972461,380.7128512534L610.9753459552,382.076018207L611.8262925989,383.8687892913L612.0824027538,385.4054502207L611.8366196212751,386.76448636532496L611.0992702237,387.9335052982L609.8703545610749,388.776190324L608.1498726334,389.1727479832L607.8937624785,389.1727479832L606.6462581755251,388.92696485067495L605.6300791738,388.1896154531L604.8328330464499,387.152782406625L604.2256041308,386.0085483274L604.0934182444,385.6202522861L603.9694939759,385.2402178627L603.4490120482,383.2739528025L603.4077039587,383.1417669161L603.3663958692,382.9269648507L602.746774526675,381.40476175255003L601.9123511187,380.2419390331L601.3030567985688,379.8118185511812L600.416998278775,379.504589635525L599.2541755593188,379.3202522861312L597.8145886402,379.258806503L596.839717728,379.343488086475L595.6335215146,379.5975328369L594.2992702237251,380.045725607975L592.9402340791,380.7128512534L591.8114905335124,381.5457256079875L590.73025129085,382.59856553915L589.6965163511125,383.87137104688753L588.7102857143,385.3641421312L587.8681170395749,387.1352264685625L587.2665679862,389.24297173535L586.9056385541751,391.68737793156254L586.7853287435,394.4684450572L587.0259483648439,397.9656911845875L587.7478072288751,401.10458963555L588.9509053355938,403.8851404100875L590.635242685,406.3073435082L592.6526265060062,408.2699941106125L594.863125645425,409.67188739805L597.2667401032563,410.5130233705125L599.8634698795,410.793402028L602.0548640275188,410.64366020355624L604.010802065375,410.194434730225L605.7312839930687,409.4457256080062L607.2163098106,408.3975328369L609.8001308089,405.795123198375L612.0824027538,402.763109429L613.2803373494,403.4405620968L611.5195800344126,406.8469304272813L609.65761790015,409.713195487525L607.6944509466125,412.0393572775313L605.6300791738,413.8254157973L603.4536592082188,415.15192182141254L601.154347676375,416.09942612435L598.7321445782687,416.66792870611243L596.1870499139,416.8574295667L594.0555524957,416.6921972087L591.8331772805,416.1799768989L589.6975490533064,415.304761752575L587.6527986230251,414.0505448851L585.6989259896562,412.41732629647504L583.8359311532,410.4051059867L582.2491841652376,407.97464127068747L581.1157934595501,405.07842784555L580.4357590361376,401.7164657112875L580.209080895,397.8887548679L580.2938915662562,395.50243817254847L580.548323580025,393.25915073709376L580.9723769363063,391.15889256153594L581.5660516351,389.201663645875L582.3293476764063,387.387463990111L583.2622650602251,385.7162935942438L584.3648037865563,384.1881524582735L585.6369638554,382.8030405822L588.4144165232062,380.461388258625L591.3271531841249,378.69082027239995L594.3751738381562,377.49133662352494L597.5584784853,376.862937312L598.4507332186,376.8216292225L599.3512495697,376.780321133ZM628.9210671256,366.6846240589L629.0945611015,366.9076877422L629.1771772805,367.7173262965L629.1771772805,377.5486515977L637.8105679862,377.5486515977L637.8105679862,380.2832471226L629.1771772805,380.2832471226L629.1771772805,406.2164657113L629.3506712564,407.8853125271L629.703855421625,409.53143989370005L630.4164199655,411.0495121829L630.9492943200937,411.68565676120005L631.647401032675,412.14004574570004L632.5107401032437,412.4126791364L633.5393115318,412.5035569333L634.8859552495251,412.352782406625L636.0177969019,411.9004588266L637.7279518072,410.6199080521L638.322788296,410.0250715632L638.7523924268,409.5128512534L639.8594492254,410.3637978972L638.118313252975,412.865002716425L635.8029948365,414.8994261243L634.4847504302813,415.69409049610005L633.1406884681251,416.2853125271L631.7708089500312,416.6730922173L630.375111876,416.8574295667L629.8628915662,416.8574295667L628.2978313252627,416.72162922246247L626.8494664371501,416.31422818975L625.5177969018625,415.63522646856256L624.3028227194,414.6846240589L623.2943889844812,413.3297187232937L622.5740791738249,411.44606984207496L622.1418932874312,409.03367741524374L621.9978313253,406.0925414428L621.9978313253,380.2832471226L617.470464716,380.2832471226L617.2556626506,380.1097531467L617.1234767642,379.7710268128L617.2143545611,379.3827307715L617.470464716,379.0026963481L618.0900860585,378.4780836114501L618.9245094664,377.9286860211L619.88698795175,377.2574295667L620.8907745266,376.3507170021L622.4274354561,374.7231782758L623.7906024096,373.1865173464L624.3028227194,372.5008030607L624.8233046471,371.8233503929L626.5251979346,369.5100973808L627.4690877796749,368.1448650228L628.5823407917,366.6102694978ZM249.7888537005,376.9042454015L251.4990086058,377.3751576218L252.71449913938122,377.92455521215004L253.882485370025,378.7135397216L255.00296729773123,379.74211115015L256.0759449225,381.0102694978L256.99040275385,382.58772216563125L257.6435869191,384.544176554625L258.03549741825,386.8796326647813L258.1661342513,389.5940904961L258.1661342513,409.0832471226L258.23016179002497,410.5026963480875L258.4222444062,411.68772216565003L258.74238209982497,412.63832457528747L259.1905748709,413.354503577L259.839628227175,413.8946068472125L260.7540860585,414.31698206235L261.93394836487505,414.6216292224125L263.3792151463,414.8085483274L263.3792151463,416.006482923L245.608475043,416.006482923L245.608475043,414.7259321484L247.773018932875,414.39133662345L249.4914354561,413.5693056424L250.14565232355625,412.79839342210005L250.612950086025,411.5514054703L250.89332874350626,409.828341787L250.986788296,407.6292023722L250.986788296,389.684968293L250.89900860581247,387.8643142482437L250.63566953524997,386.252266055475L250.19677108431247,384.84882371469376L249.582313253,383.6539872259L248.72930120481874,382.7033848162812L247.58300172117498,382.024383095125L246.14341480206872,381.61698206243125L244.4105404475,381.4811817182L242.485583476725,381.79099238944997L240.478010327,382.7204244032L238.321728055075,384.24675831025L235.9506437177,386.3472746614L235.9506437177,410.2811817182L236.02241652320623,411.320080169125L236.237734939725,412.2144003068L236.59659896725623,412.964142131225L237.0990086058,413.5693056424L237.8131222030375,414.0464140761251L238.79883648875,414.4119906682L240.0561514629375,414.66603541862503L241.5850671256,414.8085483274L241.5850671256,416.006482923L223.4673390705,416.006482923L223.4673390705,414.7259321484L224.8480619620813,414.60872044444375L225.99952495692503,414.347963129475L226.92172805503128,413.9436602034937L227.6146712564,413.3958116665L228.120695352775,412.61870323277503L228.4821411359,411.5266206166L228.69900860577502,410.119563817975L228.7712977624,408.3975328369L228.7712977624,387.1156051261L228.7227607572375,385.5639700142125L228.57714974175,384.32111287134995L228.3344647159375,383.38703369751244L227.9947056798,382.7617324927L227.20572117035,382.0347101175L226.3754285714,381.7372918731L225.7805920826,381.7372918731L224.2356695353,381.8199080521L223.66355249565,381.925243680325L223.3021067125,382.076018207L223.3021067125,380.5393572775L227.2263752151,379.424038861L231.1589053356,378.1434880865L233.1251703958,377.4577738008L235.0914354561,376.780321133L235.6945335628,376.862937312L235.6945335628,383.6126791364L237.7847228915,381.7785999626L239.7922960413,380.0271369677L241.70692598965,378.711474317125L243.6835180723,377.6725758662L245.8088192771,377.0033848163L248.1695765921,376.780321133ZM279.9644130809,376.945553491L279.9644130809,407.2904760383L280.02327710843747,409.25261028959375L280.19986919104997,410.86775658907504L280.4941893287375,412.13591493674375L280.9062375215,413.0570853326L281.592468158325,413.72730908473756L282.7175972461,414.24262750125L284.281624784825,414.6030405821375L286.2845507745,414.8085483274L286.2845507745,416.006482923L266.0353253012,416.006482923L266.0353253012,414.7259321484L267.877149741825,414.61440030675L269.38747676419996,414.3706825787L270.566306368325,413.99477896425003L271.4136385542,413.4866894634L272.01363855418754,412.67085469576875L272.44220998275,411.379976898875L272.6993528398875,409.61405607271877L272.7850671256,407.3730922173L272.7850671256,387.4625930779L272.73704647155625,386.0219734565437L272.59298450942504,384.864314248275L272.3528812392062,383.98961545309373L272.0167366609,383.397877071L271.22568674697504,382.70596657187497L270.3891979346,382.4147445409L269.7943614458,382.4147445409L268.0842065404,382.5056223378L266.3740516351,382.7617324927L266.3740516351,381.3903039213L269.7034836489,380.3658633016L273.0411772805,379.1679287061L276.3293012048,377.9699941106L279.6174251291,376.780321133ZM482.5139621342,376.9042454015L484.2241170396,377.3751576218L485.43960757314375,377.92455521215004L486.607593803775,378.7135397216L487.7280757314938,379.74211115015L488.8010533563,381.0102694978L489.71551118760624,382.58772216563125L490.368695352825,384.544176554625L490.76060585195626,386.8796326647813L490.891242685,389.5940904961L490.891242685,409.0832471226L490.955270223725,410.5026963480875L491.1473528399,411.68772216565003L491.467490533525,412.63832457528747L491.9156833046,413.354503577L492.56473666087504,413.8946068472125L493.4791944922,414.31698206235L494.6590567985751,414.6216292224125L496.10432358,414.8085483274L496.10432358,416.006482923L478.3335834767,416.006482923L478.3335834767,414.7259321484L480.49812736657503,414.39133662345L482.2165438898,413.5693056424L482.8707607572562,412.79839342210005L483.338058519725,411.5514054703L483.61843717720626,409.828341787L483.7118967297,407.6292023722L483.7118967297,389.684968293L483.6241170395125,387.8643142482437L483.36077796895,386.252266055475L482.92187951801253,384.84882371469376L482.3074216867,383.6539872259L481.45440963851877,382.7033848162812L480.308110154875,382.024383095125L478.86852323576875,381.61698206243125L477.1356488812,381.4811817182L475.210691910475,381.79099238944997L473.2031187607,382.7204244032L471.046836488775,384.24675831025L468.6757521514,386.3472746614L468.6757521514,410.2811817182L468.74752495691246,411.320080169125L468.96284337344997,412.2144003068L469.32170740101253,412.964142131225L469.8241170396,413.5693056424L470.53823063683745,414.0464140761251L471.52394492254996,414.4119906682L472.7812598967374,414.66603541862503L474.3101755594,414.8085483274L474.3101755594,416.006482923L456.1924475043,416.006482923L456.1924475043,414.7259321484L457.5731703958437,414.60872044444375L458.72463339067497,414.347963129475L459.6468364887937,413.9436602034937L460.3397796902,413.3958116665L460.845803786575,412.61870323277503L461.2072495697,411.5266206166L461.424117039575,410.119563817975L461.4964061962,408.3975328369L461.4964061962,387.1156051261L461.4478691910375,385.5639700142125L461.30225817555,384.32111287134995L461.0595731497375,383.38703369751244L460.7198141136,382.7617324927L459.930829604125,382.0347101175L459.1005370051,381.7372918731L458.5057005163,381.7372918731L456.960777969,381.8199080521L456.388660929425,381.925243680325L456.0272151463,382.076018207L456.0272151463,380.5393572775L459.9514836489,379.424038861L463.8840137693,378.1434880865L465.8502788296,377.4577738008L467.8165438898,376.780321133L468.4196419965,376.862937312L468.4196419965,383.6126791364L470.5098313253,381.7785999626L472.517404475,380.0271369677L474.4320344234,378.711474317125L476.408626506,377.6725758662L478.53392771079996,377.0033848163L480.8946850258,376.780321133ZM525.2471807229,376.9042454015L526.9573356282,377.3751576218L528.1728261617812,377.92455521215004L529.340812392425,378.7135397216L530.4612943201313,379.74211115015L531.5342719449,381.0102694978L532.4487297762062,382.58772216563125L533.101913941425,384.544176554625L533.4938244405562,386.8796326647813L533.6244612736,389.5940904961L533.6244612736,409.0832471226L533.6884888123313,410.5026963480875L533.880571428525,411.68772216565003L534.2007091221813,412.63832457528747L534.6489018933,413.354503577L535.2979552495688,413.8946068472125L536.212413080875,414.31698206235L537.3922753872187,414.6216292224125L538.8375421686,414.8085483274L538.8375421686,416.006482923L521.0668020654,416.006482923L521.0668020654,414.7259321484L523.2313459552249,414.39133662345L524.9497624785,413.5693056424L525.6039793459563,412.79839342210005L526.0712771084251,411.5514054703L526.3516557659062,409.828341787L526.4451153184,407.6292023722L526.4451153184,389.684968293L526.3573356282125,387.8643142482437L526.0939965576499,386.252266055475L525.6550981067126,384.84882371469376L525.0406402754,383.6539872259L524.1876282271812,382.7033848162812L523.041328743525,382.024383095125L521.6017418244312,381.61698206243125L519.8688674699,381.4811817182L517.943910499125,381.79099238944997L515.9363373494,382.7204244032L513.780055077425,384.24675831025L511.4089707401,386.3472746614L511.4089707401,410.2811817182L511.4807435456063,411.320080169125L511.696061962125,412.2144003068L512.0549259896561,412.964142131225L512.5573356282,413.5693056424L513.2714492254374,414.0464140761251L514.25716351115,414.4119906682L515.5144784853373,414.66603541862503L517.043394148,414.8085483274L517.043394148,416.006482923L498.9256660929,416.006482923L498.9256660929,414.7259321484L500.30638898448126,414.60872044444375L501.457851979325,414.347963129475L502.3800550774313,413.9436602034937L503.0729982788,413.3958116665L503.57902237517504,412.61870323277503L503.94046815830006,411.5266206166L504.157335628175,410.119563817975L504.2296247848,408.3975328369L504.2296247848,387.1156051261L504.18108777963755,385.5639700142125L504.03547676415,384.32111287134995L503.7927917383375,383.38703369751244L503.4530327022,382.7617324927L502.66404819275,382.0347101175L501.8337555938,381.7372918731L501.238919105,381.7372918731L499.6939965576,381.8199080521L499.121879518025,381.925243680325L498.7604337349,382.076018207L498.7604337349,380.5393572775L502.6847022375,379.424038861L506.617232358,378.1434880865L508.5834974182,377.4577738008L510.5497624785,376.780321133L511.1528605852,376.862937312L511.1528605852,383.6126791364L513.2430499139,381.7785999626L515.2506230637,380.0271369677L517.165253012025,378.711474317125L519.1418450946,377.6725758662L521.2671462994499,377.0033848163L523.6279036144,376.780321133ZM430.2334113596687,379.37653455808123L428.408626505975,380.002352114025L426.70570051631876,381.04538137393126L425.1246333907,382.5056223378L423.79812736658755,384.37894419663746L422.85062306365,386.66947775945L422.28212048188755,389.3772230262375L422.0926196213,392.502179997L422.156647160025,394.49942612435L422.3487297762,396.9056223378L422.7122409638,399.541078447925L423.2905542168,402.2426275013L423.90191394144375,404.50372905035624L424.71155249567494,406.66878929132497L425.71946987949366,408.7378082242062L426.9256660929,410.710785849L428.36318760755,412.3915087405312L430.0733425129,413.592025091625L432.05613080895,414.31233490228124L434.3115524957,414.5524381725L435.6003648881,414.4698219935L436.9635318416,414.1228340417L438.30707745263123,413.53935727750627L439.60311876072495,412.63987362862497L440.8516557658812,411.4243830950562L442.0526884681,409.8928856768L443.0791944922187,407.9534708747625L443.812413080875,405.50596657185L444.2523442340687,402.5503727680625L444.3989879518,399.0866894634L444.20122547331255,395.23522646858754L443.60793803785,391.62851390405L442.6191256454125,388.26655176978755L441.234788296,385.1493400658L440.4029466436687,383.7474467783703L439.4853907056249,382.53247259593127L438.4821204818687,381.50441751848274L437.3931359724,380.66328154602496L436.2184371772188,380.00906467855776L434.95802409632495,379.5417669160812L433.61189672971875,379.2613882585953L432.1800550774,379.1679287061ZM556.1254939758751,379.9847961759687L554.5738588639999,380.378255728475L553.1554423407749,381.03402164931873L551.8702444062,381.9520939385L550.743049913925,383.2192195839188L549.7903820998,384.930407191475L549.0122409638251,387.08565676116876L548.4297302295946,389.5940904961L566.0223958692,389.5940904961L565.8075938038,388.2722316321L565.5019139415,386.7768787922L564.6612943201001,384.310785848975L563.3291084337,382.0347101175L562.3893493975687,381.08049325000627L561.156302925975,380.398909773225L559.6299690189187,379.9899596871562L557.8103476764,379.8536429918ZM277.386788296,358.04090633092505L278.8077865748,359.0013194118L279.737218588625,360.40992526375L280.0470292599,362.0746412706L279.737218588625,363.797188602825L278.8077865748,365.1975328369L277.386788296,366.12696485065004L275.6022788296,366.4367755219L274.1420378657,366.2219734565L272.999869191,365.5775672603L272.17577280547505,364.68324712262495L271.6697487091,363.702179997L271.4136385542,362.8429717354L271.3310223752,362.0746412706L271.4136385542,361.3063108059L271.6697487091,360.4553641622L272.22740791735004,359.47223163210003L273.0411772805,358.571715281L274.152364888075,357.933505298225L275.6022788296,357.7207686373ZM344.1950264015,284.5043604505L344.2611193447,288.19936905637496L344.4593981743,292.5594379032L345.01086116914996,297.2685601063L346.1365066081,302.0272520168L346.96266839810625,304.38181311835L348.020155489325,306.67028127669994L349.3089678817563,308.89265649184995L350.8291055754,311.0489387638L352.6254911175375,313.0673552870375L354.74304705555,314.87613325605L357.1817733894375,316.4752726708375L359.9416701192,317.8647735314L363.0723069522812,318.9852554591312L366.623253596025,319.785599693225L370.59451005043127,320.26580623368125L374.9860763155,320.4258750805L378.69244464596096,320.2987236175047L382.20259955129376,319.91726922851876L385.5165410314985,319.2815119135422L388.63426908657505,318.39145167257504L391.5557837165235,317.24708850561717L394.28108492134373,315.84842241266875L396.8101727010359,314.1954533937296L397.4672774371788,313.65822882110155L393.70235879648124,310.33534151768754L389.858641068425,306.07131397895L386.48996636963125,301.35496286018747L383.5963347001,296.1862881614L382.3532193816859,293.42600416828907L381.2758527723937,290.5441194867062L380.3642348722234,287.5406341166516L379.61836568117496,284.415548058125L379.0382451992484,281.16886131112653L378.62387342644377,277.80057387565626L378.3752503627609,274.31068575171406L378.2923760082,270.6991969393L378.3877718773906,266.52682172416564L378.67395948496244,262.5067700890625L379.1509388309156,258.6390420339907L379.81870991525,254.92363755895002L380.6772727379656,251.3605566639406L381.72662729906244,247.94979934896253L382.9667735985406,244.69136561401564L384.3977116364,241.5852554591L387.6992606897875,235.80160657788124L391.49857222165,230.570453393725L395.79564623198746,225.89179590663127L400.5904827208,221.7656341166L405.75605931287504,218.17028127669374L408.0821176235,216.84316687018614L408.0821176235,208.9353415177L415.8728233034,208.9353415177L415.8728233034,212.93799829013017L411.16535363300005,215.084050639875L408.0821176235,216.84316687018614L408.0821176235,231.09560032453737L406.9601901218,232.5553070943L404.6385464040734,236.22449814419218L402.6264551820437,240.10642585501876L400.92391645571087,244.20109022677968L399.53093022507494,248.508491259475L398.4474964901359,253.0286289531047L397.6736152508937,257.76150330766876L397.20928650734845,262.7071143231672L397.0545102595,267.8654619996L397.1553278154375,272.20255322163746L397.45778048324996,276.36563411664997L397.9618682629374,280.35470468463745L398.6675911545,284.16976492559996L399.57494915793745,287.81081483953744L400.68394227324995,291.27785442645L401.9945705004375,294.5708836863375L403.5068338395,297.6899026192L405.19530199786254,300.6258750804843L405.7990274732662,301.5299344446057L404.590293182914,304.6408922921546L403.0538904290562,307.5331039961187L401.23814171995156,310.0822003816672L399.1430470556,312.2881814488L397.4672774371788,313.65822882110155L398.0211195538,314.1470454764L402.74108513040005,317.4997132904938L403.68244530384226,318.03902517999916L403.37867528275,318.34549642300635L400.23151521389997,320.76253600992504L396.60827941354995,322.9017786949563L392.5089678817,324.7632244781L387.8509644393563,326.27406785156245L382.551652907525,327.35324168975L376.6110332862063,328.00074599266253L370.0291055754,328.2165807603L363.78022433614376,327.9899026191688L358.128244990175,327.30986819577504L353.07316753749376,326.17647749011877L348.6149919781,324.5897305022L344.68246185760626,322.654446509075L341.20432072162504,320.47544478789996L338.18056857015625,318.05272533867503L335.6112054032,315.3862881614L333.43633449098127,312.554102275L331.604320721625,309.63413669839997L330.11516409513126,306.6263914316L328.9688646115,303.5308664746L328.0915840607375,300.4374069221187L327.40122261495003,297.444119486675L326.8977802741375,294.5510041682688L326.5812570383,291.7580609669L326.3896907732438,289.1587494350625L326.252857726775,286.84652912525L326.1707578988938,284.82140003746247L326.1433912896,283.0833621717L326.1433912896,208.9353415177L344.1950264015,208.9353415177ZM452.0459044075,207.03310399612502L457.9343725659,207.6960988326L463.727832118375,208.6689043404L469.0792951132,209.819334633L471.5040799669,210.4275962508875L473.63970819409997,211.01313841955002L475.4861797948,211.5759611389875L477.043494769,212.1160644092L475.2755085383,224.1532416898L465.784974975475,220.346701242275L456.430758108,217.0730351493L451.6457322904438,215.75737249872498L446.584974975475,214.81761346259998L441.24848616309373,214.253758040925L435.6362658533,214.0658062337L431.0839853025235,215.2836203473L426.80821077584375,216.81382688775L422.808942273261,218.65642585505L419.086179794775,220.8114172492L415.8728233034,223.11205387414594L415.8728233034,280.7866323955L415.8449403429875,283.02036733522505L415.76129146175003,285.4751005538L415.6218766596875,288.150832051225L415.4266959368,291.0475618275L415.1044928386937,294.0862881613938L414.584010910975,297.179747713875L413.86525015364373,300.3279404849437L412.9482105667,303.5308664746L411.7549231312625,306.711073015075L411.02067671945065,308.1724610185852L411.1405687793,308.30608162094995L413.4156118085625,310.49024685330926L415.83729855555003,312.48646027843745L418.4056290202625,314.2947218963343L421.1206032027,315.915031707L423.95859803918125,317.34596974485936L426.89599046602495,318.5861160443375L429.9327804832312,319.63547060543436L433.0689680908,320.49403342815L436.30455328873126,321.1618045124843L439.639536077025,321.6387838584375L443.0739164556813,321.9249714660093L446.6076944247,322.0203673352L451.2853192095563,321.87114186188126L455.941257247425,321.423465441925L460.5755085383062,320.67733807533125L465.1880730822,319.6327597621L469.5574362491563,318.2897305021812L473.462083409225,316.64825029562496L476.90201456240624,314.70831914243126L479.8772297087,312.4699370426L479.8772297087,322.202122929L474.257264132125,324.1250144953L468.021808022,325.6472175934L461.49306447635,326.79971329045003L455.0097598292,327.5969594178L448.8383312578,328.061675424675L443.2452159394,328.2165807603L436.937987023725,328.00074599266253L430.7639766967,327.35324168975L424.72318495832496,326.27406785156245L418.8156118086,324.7632244781L413.1383312578,322.80780279134376L407.7801556984,320.3866323954751L403.68244530384226,318.03902517999916L406.0497596201,315.6506599342L408.30569765796247,312.77096974487495L410.20741882835,309.7911074385L411.02067671945065,308.1724610185852L409.01216946776253,305.9339645813593L407.03041387395,303.3738957345374L405.7990274732662,301.5299344446057L405.847349981525,301.405565269775L406.8250608248891,297.82712292897963L407.52342571300625,293.9055652697688L407.94244464587655,289.6408922921422L408.0821176235,285.0331039961L408.0821176235,231.09560032453737L409.57692850389844,229.15074599275L412.4701729100937,226.05857731805L415.6399233403859,223.2788010702L415.8728233034,223.11205387414594L415.8728233034,212.93799829013017L416.818365681175,212.50694220614378L422.7150954574,210.4389559755L428.7078665417563,208.8522089875375L434.657264132125,207.71881828185L440.5632882285063,207.0387838584375L446.4259388309,206.8121057173Z"></path></svg>