<svg class="svg-canvas" viewBox="0 0 800 600" width="1600" height="1200" preserveAspectRatio="none" version="1.1" xmlns="http://www.w3.org/2000/svg" xmlns:xlink="http://www.w3.org/1999/xlink">
      <!--滤镜-->
      <defs></defs>
    
      <!-- 背景 -->
      <g id="background">
          <rect x="0" y="0" fill="rgb(31, 31, 31)" width="800" height="600"></rect>
          
        </g>
    
      <!--元素-->
      
              <g id="shape_9ZYo2dnUr6" ref="shape_9ZYo2dnUr6" key="shape_9ZYo2dnUr6" mask="">
                <g transform="translate(-96.40062638669599,82.77281006468161) rotate(0,496.400626386696,307.6226573677631) scale(1,1)" style="opacity: 1;" filter="">
                  <!--普通元素-->
                  <svg xmlns="http://www.w3.org/2000/svg" version="1.1" xmlns:xlink="http://www.w3.org/1999/xlink" width="992.8012527733919" height="615.2453147355262" viewBox="0 0 1201.7031830444598 744.7031830444599" data-ligature="true" data-parent="shape_9ZYo2dnUr6"><g data-role="text" data-width="580.45795" data-height="124" transform="translate(310.62261652223, 310.35159152222997)"><path d="M72.93-68.48L72.93-68.48L72.93-66.52Q66.93-65.79 65.07-63.57Q63.21-61.35 63.21-53.17L63.21-53.17L63.21-26.28Q63.21-23.90 63.05-20.69Q62.90-17.48 61.86-14.17L61.86-14.17Q60.21-8.28 54.67-3.41Q49.14 1.45 36.41 1.45L36.41 1.45Q25.03 1.45 19.71-2.90Q14.38-7.24 12.52-12.52L12.52-12.52Q11.17-16.24 10.97-19.60Q10.76-22.97 10.76-24.83L10.76-24.83L10.76-57.21Q10.76-62.90 9.05-64.45Q7.34-66.00 1.45-66.41L1.45-66.41L1.45-68.48L30.72-68.48L30.72-66.52Q24.62-66.00 22.97-64.29Q21.31-62.59 21.31-57.10L21.31-57.10L21.31-24.10Q21.31-22.24 21.41-19.91Q21.52-17.59 22.03-15.10L22.03-15.10Q23.17-10.55 26.85-6.78Q30.52-3.00 39.31-3.00L39.31-3.00Q45.41-3.00 49.71-5.28Q54.00-7.55 56.28-11.17L56.28-11.17Q57.31-12.93 57.98-15.93Q58.66-18.93 58.66-25.24L58.66-25.24L58.66-53.28Q58.66-61.45 56.54-63.78Q54.41-66.10 48.93-66.41L48.93-66.41L48.93-68.48L72.93-68.48Z" transform="translate(0 93) " fill="rgb(215, 191, 173)" stroke="rgb(215, 191, 173)" stroke-width="0.172" data-glyph-w="74.6909" data-glyph-h="103.34655" data-glyph-ascender="83.1738" data-glyph-descender="-20.17275" data-kerning="0"></path><path d="M8.28-9.21L8.28-9.31L8.28-34.97Q8.28-39.10 7.34-40.24Q6.41-41.38 5.38-41.48L5.38-41.48Q5.17-41.48 5.02-41.48Q4.86-41.48 4.66-41.48L4.66-41.48Q3.62-41.48 2.79-41.38Q1.97-41.28 1.66-41.07L1.66-41.07L1.66-42.93Q4.03-43.55 6.41-44.28Q8.79-45.00 11.17-45.83L11.17-45.83Q12.31-46.24 13.55-46.66Q14.79-47.07 15.93-47.48L15.93-47.48L16.66-47.38L16.66-39.21Q18.00-40.35 19.19-41.43Q20.38-42.52 21.62-43.55L21.62-43.55Q23.90-45.31 26.33-46.40Q28.76-47.48 31.76-47.48L31.76-47.48Q32.69-47.48 33.72-47.33Q34.76-47.17 35.79-46.76L35.79-46.76Q38.79-45.72 41.33-42.36Q43.86-39.00 43.86-31.97L43.86-31.97L43.86-8.38Q43.86-4.66 45.10-3.21Q46.35-1.76 50.17-1.45L50.17-1.45L50.17 0L28.66 0L28.66-1.55Q31.55-1.66 33.36-2.95Q35.17-4.24 35.17-10.14L35.17-10.14L35.17-31.86Q35.17-36.52 33.47-39.16Q31.76-41.79 27.21-41.79L27.21-41.79Q24.93-41.79 22.45-40.29Q19.97-38.79 16.97-35.90L16.97-35.90L16.97-6.93Q16.97-4.24 18.36-2.95Q19.76-1.66 23.79-1.45L23.79-1.45L23.79 0L1.86 0L1.86-1.55Q5.48-1.66 6.88-3.16Q8.28-4.66 8.28-9.21L8.28-9.21Z" transform="translate(74.6909 93) " fill="rgb(215, 191, 173)" stroke="rgb(215, 191, 173)" stroke-width="0.172" data-glyph-w="51.725" data-glyph-h="103.34655" data-glyph-ascender="83.1738" data-glyph-descender="-20.17275" data-kerning="0"></path><path d="M1.66 0L1.66 0L1.66-1.55Q6.52-1.66 8.17-3.05Q9.83-4.45 9.83-10.45L9.83-10.45L9.83-34.55Q9.83-38.38 8.90-39.47Q7.97-40.55 6.93-40.66L6.93-40.66Q6.72-40.66 6.57-40.66Q6.41-40.66 6.21-40.66L6.21-40.66Q5.17-40.66 4.14-40.55Q3.10-40.45 2.07-40.24L2.07-40.24L2.07-41.90Q4.14-42.41 6.10-43.14Q8.07-43.86 10.14-44.59L10.14-44.59Q12.10-45.31 14.12-46.04Q16.14-46.76 18.10-47.48L18.10-47.48L18.52-47.28L18.52-10.55Q18.52-5.38 19.66-3.57Q20.79-1.76 26.17-1.45L26.17-1.45L26.17 0L1.66 0ZM8.07-65.28L8.07-65.38Q8.07-65.69 8.17-66.21Q8.28-66.73 8.48-67.24L8.48-67.24Q9.00-68.48 10.14-69.52Q11.28-70.55 13.24-70.55L13.24-70.55Q15.62-70.55 17.12-69.00Q18.62-67.45 18.62-65.28L18.62-65.28Q18.62-63.00 17.12-61.50Q15.62-60.00 13.24-60.00L13.24-60.00Q11.28-60.00 10.09-61.04Q8.90-62.07 8.48-63.31L8.48-63.31Q8.28-63.83 8.17-64.35Q8.07-64.86 8.07-65.28L8.07-65.28Z" transform="translate(126.4159 93) " fill="rgb(215, 191, 173)" stroke="rgb(215, 191, 173)" stroke-width="0.172" data-glyph-w="28.7591" data-glyph-h="103.34655" data-glyph-ascender="83.1738" data-glyph-descender="-20.17275" data-kerning="0"></path><path d="M26.38-46.55L26.38-46.55L26.38-43.24L15.93-43.24L15.93-13.66Q15.93-12.83 15.93-11.85Q15.93-10.86 16.14-9.83L16.14-9.83Q16.35-7.76 17.43-6.00Q18.52-4.24 21.21-4.24L21.21-4.24Q22.97-4.24 24.21-4.97Q25.45-5.69 26.28-6.52L26.28-6.52Q26.69-6.93 27.00-7.24Q27.31-7.55 27.52-7.86L27.52-7.86L28.86-6.83Q27.10-3.52 23.95-1.34Q20.79 0.83 17.38 1.03L17.38 1.03Q17.17 1.03 17.02 1.03Q16.86 1.03 16.76 1.03L16.76 1.03Q12.83 1.03 10.03-1.60Q7.24-4.24 7.24-12.00L7.24-12.00L7.24-43.24L1.76-43.24Q1.66-43.24 1.50-43.45Q1.34-43.66 1.34-43.86L1.34-43.86Q1.34-44.07 1.45-44.33Q1.55-44.59 1.76-44.79L1.76-44.79Q2.38-45.41 3.52-46.09Q4.66-46.76 5.90-48.00L5.90-48.00Q6.93-49.04 7.76-49.97Q8.59-50.90 9.41-51.83L9.41-51.83Q9.72-52.24 10.03-52.66Q10.35-53.07 10.66-53.48L10.66-53.48Q11.69-54.73 12.72-56.28Q13.76-57.83 15.21-59.79L15.21-59.79Q15.72-59.79 15.83-59.43Q15.93-59.07 15.93-58.45L15.93-58.45L15.93-46.55L26.38-46.55Z" transform="translate(155.17499999999998 93) " fill="rgb(215, 191, 173)" stroke="rgb(215, 191, 173)" stroke-width="0.172" data-glyph-w="28.7591" data-glyph-h="103.34655" data-glyph-ascender="83.1738" data-glyph-descender="-20.17275" data-kerning="0"></path><path d="M49.14-46.55L49.14-46.55L49.14-45.00Q48.52-44.79 47.79-44.59Q47.07-44.38 46.24-43.76L46.24-43.76Q45.72-43.24 45.21-42.41Q44.69-41.59 44.17-40.24L44.17-40.24L28.24 1.86Q27.52 3.83 26.79 5.53Q26.07 7.24 25.35 8.79L25.35 8.79Q22.24 15.72 18.83 19.14Q15.41 22.55 10.66 22.55L10.66 22.55Q7.34 22.55 5.53 21.10Q3.72 19.66 3.31 17.90L3.31 17.90Q3.21 17.48 3.16 17.17Q3.10 16.86 3.10 16.55L3.10 16.55Q3.10 16.35 3.21 15.67Q3.31 15.00 3.62 14.28L3.62 14.28Q4.14 13.45 5.12 12.72Q6.10 12.00 8.07 12.00L8.07 12.00Q8.48 12.00 8.84 12.05Q9.21 12.10 9.62 12.21L9.62 12.21Q10.35 12.31 11.02 12.52Q11.69 12.72 12.31 12.93L12.31 12.93Q13.24 13.24 14.07 13.55Q14.90 13.86 15.41 13.86L15.41 13.86Q17.59 13.86 19.40 11.33Q21.21 8.79 22.45 5.79L22.45 5.79Q23.69 3.10 24.31 0.88Q24.93-1.34 24.93-1.97L24.93-1.97Q24.93-2.59 23.95-4.81Q22.97-7.03 21.72-9.52L21.72-9.52Q21.72-9.62 21.67-9.78Q21.62-9.93 21.52-10.03L21.52-10.03Q20.59-11.90 19.76-13.55Q18.93-15.21 18.52-16.24L18.52-16.24L6.72-41.79Q6.21-42.72 5.48-43.35Q4.76-43.97 4.03-44.28L4.03-44.28Q3.31-44.59 2.64-44.74Q1.97-44.90 1.45-45.00L1.45-45.00L1.45-46.55L22.76-46.55L22.76-45.00Q22.35-44.90 21.83-44.85Q21.31-44.79 20.79-44.79L20.79-44.79Q19.24-44.59 18.00-44.02Q16.76-43.45 16.76-41.90L16.76-41.90Q16.76-41.69 16.81-41.38Q16.86-41.07 16.86-40.86L16.86-40.86Q16.97-40.45 17.07-40.04Q17.17-39.62 17.38-39.31L17.38-39.31Q17.48-38.90 17.59-38.64Q17.69-38.38 17.79-38.17L17.79-38.17L29.69-12.10L37.76-35.07Q37.86-35.38 38.02-35.79Q38.17-36.21 38.38-36.62L38.38-36.62Q39.00-38.38 39.57-39.93Q40.14-41.48 40.14-42.00L40.14-42.00Q40.14-43.45 39.00-44.17Q37.86-44.90 35.59-44.90L35.59-44.90Q35.48-44.90 35.38-44.90Q35.28-44.90 35.17-44.90L35.17-44.90L35.17-46.55L49.14-46.55Z" transform="translate(183.93409999999997 93) " fill="rgb(215, 191, 173)" stroke="rgb(215, 191, 173)" stroke-width="0.172" data-glyph-w="51.725" data-glyph-h="103.34655" data-glyph-ascender="83.1738" data-glyph-descender="-20.17275" data-kerning="0"></path><path d="M64.14-46.66L64.14-46.66L61.76-46.66Q59.79-54.73 54.16-60.21Q48.52-65.69 39.00-65.69L39.00-65.69Q37.76-65.69 36.36-65.54Q34.97-65.38 33.62-64.97L33.62-64.97Q30.93-64.35 28.29-62.95Q25.66-61.55 23.48-59.38L23.48-59.38Q23.17-59.07 22.86-58.76Q22.55-58.45 22.24-58.04L22.24-58.04Q19.45-55.04 17.17-49.50Q14.90-43.97 14.90-33.93L14.90-33.93Q14.90-17.48 22.71-10.24Q30.52-3.00 40.24-3.00L40.24-3.00Q46.24-3.00 50.74-4.86Q55.24-6.72 58.35-8.90L58.35-8.90Q60.10-10.14 61.40-11.38Q62.69-12.62 63.62-13.45L63.62-13.45L65.48-11.69Q65.48-11.48 63.78-9.47Q62.07-7.45 58.66-5.07L58.66-5.07Q55.24-2.59 49.97-0.57Q44.69 1.45 37.45 1.45L37.45 1.45Q36.62 1.45 35.79 1.40Q34.97 1.34 34.24 1.34L34.24 1.34Q22.45 0.41 12.67-7.81Q2.90-16.03 2.90-34.14L2.90-34.14Q2.90-51.52 13.81-60.67Q24.72-69.83 38.07-69.83L38.07-69.83Q41.48-69.83 44.48-69.31Q47.48-68.79 49.76-68.17L49.76-68.17Q52.14-67.45 53.79-66.93Q55.45-66.41 56.28-66.41L56.28-66.41Q56.48-66.41 57.21-66.47Q57.93-66.52 58.76-66.93L58.76-66.93Q59.48-67.24 60.10-67.91Q60.73-68.59 61.04-69.83L61.04-69.83L63.21-69.93L64.14-46.66Z" transform="translate(235.65909999999997 93) " fill="rgb(215, 191, 173)" stroke="rgb(215, 191, 173)" stroke-width="0.172" data-glyph-w="69.00115" data-glyph-h="103.34655" data-glyph-ascender="83.1738" data-glyph-descender="-20.17275" data-kerning="0"></path><path d="M25.35-47.48L25.35-47.59Q35.48-47.48 42.05-41.12Q48.62-34.76 48.62-23.48L48.62-23.48Q48.62-21.72 48.36-19.91Q48.10-18.10 47.48-16.24L47.48-16.24Q45.62-9.72 40.24-4.34Q34.86 1.03 25.66 1.03L25.66 1.03Q15.62 1.03 9.31-6.00Q3.00-13.03 3.00-23.48L3.00-23.48Q3.00-33.00 9.00-40.24Q15.00-47.48 25.35-47.48L25.35-47.48ZM27.10-1.76L27.10-1.86Q27.83-1.76 28.66-1.86Q29.48-1.97 30.31-2.28L30.31-2.28Q33.62-3.31 36.47-7.40Q39.31-11.48 39.31-20.48L39.31-20.48Q39.31-30.10 35.48-37.35Q31.66-44.59 24.52-44.59L24.52-44.59Q19.66-44.59 15.98-40.55Q12.31-36.52 12.31-28.45L12.31-28.45Q12.31-26.28 12.62-23.12Q12.93-19.97 13.76-16.66L13.76-16.66Q15.00-11.07 18.16-6.41Q21.31-1.76 27.10-1.76L27.10-1.76Z" transform="translate(304.66024999999996 93) " fill="rgb(215, 191, 173)" stroke="rgb(215, 191, 173)" stroke-width="0.172" data-glyph-w="51.725" data-glyph-h="103.34655" data-glyph-ascender="83.1738" data-glyph-descender="-20.17275" data-kerning="0"></path><path d="M8.28-9.21L8.28-9.31L8.28-34.97Q8.28-39.10 7.34-40.24Q6.41-41.38 5.38-41.48L5.38-41.48Q5.17-41.48 5.02-41.48Q4.86-41.48 4.66-41.48L4.66-41.48Q3.62-41.48 2.79-41.38Q1.97-41.28 1.66-41.07L1.66-41.07L1.66-42.93Q4.03-43.55 6.41-44.28Q8.79-45.00 11.17-45.83L11.17-45.83Q12.31-46.24 13.55-46.66Q14.79-47.07 15.93-47.48L15.93-47.48L16.66-47.38L16.66-39.21Q18.00-40.35 19.19-41.43Q20.38-42.52 21.62-43.55L21.62-43.55Q23.90-45.31 26.33-46.40Q28.76-47.48 31.76-47.48L31.76-47.48Q32.69-47.48 33.72-47.33Q34.76-47.17 35.79-46.76L35.79-46.76Q38.79-45.72 41.33-42.36Q43.86-39.00 43.86-31.97L43.86-31.97L43.86-8.38Q43.86-4.66 45.10-3.21Q46.35-1.76 50.17-1.45L50.17-1.45L50.17 0L28.66 0L28.66-1.55Q31.55-1.66 33.36-2.95Q35.17-4.24 35.17-10.14L35.17-10.14L35.17-31.86Q35.17-36.52 33.47-39.16Q31.76-41.79 27.21-41.79L27.21-41.79Q24.93-41.79 22.45-40.29Q19.97-38.79 16.97-35.90L16.97-35.90L16.97-6.93Q16.97-4.24 18.36-2.95Q19.76-1.66 23.79-1.45L23.79-1.45L23.79 0L1.86 0L1.86-1.55Q5.48-1.66 6.88-3.16Q8.28-4.66 8.28-9.21L8.28-9.21Z" transform="translate(356.38525 93) " fill="rgb(215, 191, 173)" stroke="rgb(215, 191, 173)" stroke-width="0.172" data-glyph-w="51.725" data-glyph-h="103.34655" data-glyph-ascender="83.1738" data-glyph-descender="-20.17275" data-kerning="0"></path><path d="M8.28-9.21L8.28-9.31L8.28-34.97Q8.28-39.10 7.34-40.24Q6.41-41.38 5.38-41.48L5.38-41.48Q5.17-41.48 5.02-41.48Q4.86-41.48 4.66-41.48L4.66-41.48Q3.62-41.48 2.79-41.38Q1.97-41.28 1.66-41.07L1.66-41.07L1.66-42.93Q4.03-43.55 6.41-44.28Q8.79-45.00 11.17-45.83L11.17-45.83Q12.31-46.24 13.55-46.66Q14.79-47.07 15.93-47.48L15.93-47.48L16.66-47.38L16.66-39.21Q18.00-40.35 19.19-41.43Q20.38-42.52 21.62-43.55L21.62-43.55Q23.90-45.31 26.33-46.40Q28.76-47.48 31.76-47.48L31.76-47.48Q32.69-47.48 33.72-47.33Q34.76-47.17 35.79-46.76L35.79-46.76Q38.79-45.72 41.33-42.36Q43.86-39.00 43.86-31.97L43.86-31.97L43.86-8.38Q43.86-4.66 45.10-3.21Q46.35-1.76 50.17-1.45L50.17-1.45L50.17 0L28.66 0L28.66-1.55Q31.55-1.66 33.36-2.95Q35.17-4.24 35.17-10.14L35.17-10.14L35.17-31.86Q35.17-36.52 33.47-39.16Q31.76-41.79 27.21-41.79L27.21-41.79Q24.93-41.79 22.45-40.29Q19.97-38.79 16.97-35.90L16.97-35.90L16.97-6.93Q16.97-4.24 18.36-2.95Q19.76-1.66 23.79-1.45L23.79-1.45L23.79 0L1.86 0L1.86-1.55Q5.48-1.66 6.88-3.16Q8.28-4.66 8.28-9.21L8.28-9.21Z" transform="translate(408.11025 93) " fill="rgb(215, 191, 173)" stroke="rgb(215, 191, 173)" stroke-width="0.172" data-glyph-w="51.725" data-glyph-h="103.34655" data-glyph-ascender="83.1738" data-glyph-descender="-20.17275" data-kerning="0"></path><path d="M42.21-16.86L42.21-16.97L43.86-16.24Q43.55-15.10 42.47-12.78Q41.38-10.45 39.31-7.86L39.31-7.86Q36.72-4.45 32.48-1.71Q28.24 1.03 21.93 1.03L21.93 1.03Q13.35 1.03 7.97-5.02Q2.59-11.07 2.59-22.03L2.59-22.03Q2.59-32.59 6.93-38.28Q11.28-43.97 16.55-46.04L16.55-46.04Q18.41-46.76 20.22-47.12Q22.03-47.48 23.69-47.48L23.69-47.48Q31.04-47.48 36.05-43.09Q41.07-38.69 41.90-28.55L41.90-28.55L9.72-28.66Q10.45-17.28 14.22-12.41Q18.00-7.55 22.45-6.41L22.45-6.41Q23.38-6.21 24.31-6.10Q25.24-6.00 26.17-6.00L26.17-6.00Q30.93-6.00 34.09-8.07Q37.24-10.14 39.31-12.62L39.31-12.62Q40.24-13.76 40.97-14.85Q41.69-15.93 42.21-16.86L42.21-16.86ZM10.03-31.86L10.03-31.97L31.35-31.97Q31.24-32.69 31.09-33.57Q30.93-34.45 30.72-35.38L30.72-35.38Q30.00-38.48 28.09-41.12Q26.17-43.76 21.41-43.76L21.41-43.76Q17.17-43.76 14.22-41.22Q11.28-38.69 10.03-31.86L10.03-31.86Z" transform="translate(459.83525000000003 93) " fill="rgb(215, 191, 173)" stroke="rgb(215, 191, 173)" stroke-width="0.172" data-glyph-w="45.9318" data-glyph-h="103.34655" data-glyph-ascender="83.1738" data-glyph-descender="-20.17275" data-kerning="0"></path><path d="M41.17-16.03L41.17-16.14L42.62-15.21Q38.48-6.31 33.36-2.64Q28.24 1.03 21.93 1.03L21.93 1.03Q20.69 1.03 19.35 0.83Q18.00 0.62 16.66 0.21L16.66 0.21Q11.38-1.45 6.98-6.78Q2.59-12.10 2.59-21.93L2.59-21.93Q2.59-33.83 9.16-40.19Q15.72-46.55 23.59-47.38L23.59-47.38Q24.10-47.38 24.67-47.43Q25.24-47.48 25.76-47.48L25.76-47.48Q26.59-47.48 27.52-47.38Q28.45-47.28 29.38-47.07L29.38-47.07Q31.45-46.66 33.41-45.88Q35.38-45.10 36.72-44.28L36.72-44.28Q37.76-43.55 38.54-42.72Q39.31-41.90 39.83-41.07L39.83-41.07Q40.55-39.93 40.86-38.90Q41.17-37.86 41.17-37.04L41.17-37.04Q41.17-35.28 39.98-33.98Q38.79-32.69 36.41-32.48L36.41-32.48Q36.31-32.48 36.26-32.48Q36.21-32.48 36.10-32.48L36.10-32.48Q34.45-32.48 33.36-33.67Q32.28-34.86 31.66-36.31L31.66-36.31Q31.55-36.52 31.50-36.78Q31.45-37.04 31.35-37.24L31.35-37.24L30.72-39.62Q30.72-39.62 30.67-39.78Q30.62-39.93 30.62-40.04L30.62-40.04Q30.00-42.10 28.86-43.29Q27.72-44.48 23.90-44.48L23.90-44.48Q22.86-44.48 21.26-44.07Q19.66-43.66 18.00-42.72L18.00-42.72Q15.21-40.97 12.88-37.09Q10.55-33.21 10.55-26.07L10.55-26.07Q10.55-17.17 15.21-11.74Q19.86-6.31 26.38-6.31L26.38-6.31Q31.97-6.31 35.28-9.21Q38.59-12.10 41.17-16.03L41.17-16.03Z" transform="translate(505.76705000000004 93) " fill="rgb(215, 191, 173)" stroke="rgb(215, 191, 173)" stroke-width="0.172" data-glyph-w="45.9318" data-glyph-h="103.34655" data-glyph-ascender="83.1738" data-glyph-descender="-20.17275" data-kerning="0"></path><path d="M26.38-46.55L26.38-46.55L26.38-43.24L15.93-43.24L15.93-13.66Q15.93-12.83 15.93-11.85Q15.93-10.86 16.14-9.83L16.14-9.83Q16.35-7.76 17.43-6.00Q18.52-4.24 21.21-4.24L21.21-4.24Q22.97-4.24 24.21-4.97Q25.45-5.69 26.28-6.52L26.28-6.52Q26.69-6.93 27.00-7.24Q27.31-7.55 27.52-7.86L27.52-7.86L28.86-6.83Q27.10-3.52 23.95-1.34Q20.79 0.83 17.38 1.03L17.38 1.03Q17.17 1.03 17.02 1.03Q16.86 1.03 16.76 1.03L16.76 1.03Q12.83 1.03 10.03-1.60Q7.24-4.24 7.24-12.00L7.24-12.00L7.24-43.24L1.76-43.24Q1.66-43.24 1.50-43.45Q1.34-43.66 1.34-43.86L1.34-43.86Q1.34-44.07 1.45-44.33Q1.55-44.59 1.76-44.79L1.76-44.79Q2.38-45.41 3.52-46.09Q4.66-46.76 5.90-48.00L5.90-48.00Q6.93-49.04 7.76-49.97Q8.59-50.90 9.41-51.83L9.41-51.83Q9.72-52.24 10.03-52.66Q10.35-53.07 10.66-53.48L10.66-53.48Q11.69-54.73 12.72-56.28Q13.76-57.83 15.21-59.79L15.21-59.79Q15.72-59.79 15.83-59.43Q15.93-59.07 15.93-58.45L15.93-58.45L15.93-46.55L26.38-46.55Z" transform="translate(551.69885 93) " fill="rgb(215, 191, 173)" stroke="rgb(215, 191, 173)" stroke-width="0.172" data-glyph-w="28.7591" data-glyph-h="103.34655" data-glyph-ascender="83.1738" data-glyph-descender="-20.17275" data-kerning="0"></path></g></svg>
                </g>
              </g>
              <g id="shape_m5SrZGu7uo" ref="shape_m5SrZGu7uo" key="shape_m5SrZGu7uo" mask="">
                <g transform="translate(-218.2767705535241,-372.5485366765951) rotate(0,589.1754444592966,637.092828280295) scale(1,1)" style="opacity: 1;" filter="">
                  <!--普通元素-->
                  <svg xmlns="http://www.w3.org/2000/svg" version="1.1" xmlns:xlink="http://www.w3.org/1999/xlink" width="1178.3508889185935" height="1274.18565656059" viewBox="0 0 1426.2955551285474 1542.2955551285474" data-ligature="true" data-parent="shape_m5SrZGu7uo"><g data-role="text" data-width="140.74254" data-height="257" transform="translate(642.9052375642738, 642.6477775642737)"><path d="M69.19 2.57L69.19 2.57Q53.34 2.57 43.27-1.82Q33.20-6.21 27.53-12.96Q21.85-19.71 19.49-27.31Q17.14-34.92 16.60-41.56Q16.07-48.20 16.07-52.06L16.07-52.06L16.07-141.81L37.92-141.81L37.92-50.34Q37.92-46.27 38.24-40.59Q38.56-34.92 40.27-29.13Q41.99-23.35 45.95-18.21Q49.91-13.07 56.98-9.96Q64.05-6.86 75.19-6.86L75.19-6.86Q93.61-6.86 104.43-16.71Q115.25-26.56 115.25-49.70L115.25-49.70L115.25-141.81L124.68-141.81L124.68-54.84Q124.68-49.70 124.14-42.42Q123.60-35.13 121.14-27.31Q118.68-19.49 112.79-12.64Q106.90-5.78 96.40-1.61Q85.90 2.57 69.19 2.57Z" transform="translate(0 203) " fill="rgb(215, 191, 173)" stroke="rgb(215, 191, 173)" stroke-width="0.357" data-glyph-w="140.74254" data-glyph-h="246.78144" data-glyph-ascender="198.79616" data-glyph-descender="-47.985279999999996" data-kerning="0"></path></g></svg>
                </g>
              </g>
              <g id="shape_sd99Hc6XBE" ref="shape_sd99Hc6XBE" key="shape_sd99Hc6XBE" mask="">
                <g transform="translate(-157.59563299501752,-372.5485366765951) rotate(0,587.1100399842536,637.092828280295) scale(1,1)" style="opacity: 1;" filter="">
                  <!--普通元素-->
                  <svg xmlns="http://www.w3.org/2000/svg" version="1.1" xmlns:xlink="http://www.w3.org/1999/xlink" width="1174.2200799685074" height="1274.18565656059" viewBox="0 0 1421.2955551285474 1542.2955551285474" data-ligature="true" data-parent="shape_sd99Hc6XBE"><g data-role="border" data-width="135.38703999999998" data-height="257" transform="translate(642.6477775642737, 642.6477775642737)"><path d="M84.62 2.57L84.62 2.57Q69.19 2.57 55.05-1.61Q40.92-5.78 29.88-14.46Q18.85-23.14 12.42-36.20Q6.00-49.27 6.00-67.05L6.00-67.05Q6.00-87.62 13.39-102.29Q20.78-116.96 32.99-126.28Q45.20-135.60 59.77-139.99Q74.33-144.38 88.47-144.38L88.47-144.38Q95.11-144.38 102.40-143.31Q109.68-142.24 115.89-140.74Q122.11-139.24 125.53-137.96L125.53-137.96L123.39-123.39Q111.82-128.32 100.58-131.96Q89.33-135.60 75.41-135.60L75.41-135.60Q52.70-130.46 40.70-113.22Q28.71-95.97 28.71-70.48L28.71-70.48Q28.71-49.06 36.52-34.38Q44.34-19.71 57.84-12.32Q71.34-4.93 88.69-4.93L88.69-4.93Q100.04-4.93 111.18-7.82Q122.32-10.71 128.96-16.49L128.96-16.49L128.96-4.71Q122.53-2.14 114.61-0.54Q106.68 1.07 98.86 1.82Q91.04 2.57 84.62 2.57Z" transform="translate(0 203) " fill="rgb(31, 31, 31)" stroke="rgb(31, 31, 31)" stroke-width="9.562120035062726" stroke-miterlimit="3" data-glyph-w="135.38703999999998" data-glyph-h="246.78144" data-glyph-ascender="198.79616" data-glyph-descender="-47.985279999999996" data-kerning="0"></path></g><g data-role="text" data-width="135.38703999999998" data-height="257" transform="translate(642.6477775642737, 642.6477775642737)"><path d="M84.62 2.57L84.62 2.57Q69.19 2.57 55.05-1.61Q40.92-5.78 29.88-14.46Q18.85-23.14 12.42-36.20Q6.00-49.27 6.00-67.05L6.00-67.05Q6.00-87.62 13.39-102.29Q20.78-116.96 32.99-126.28Q45.20-135.60 59.77-139.99Q74.33-144.38 88.47-144.38L88.47-144.38Q95.11-144.38 102.40-143.31Q109.68-142.24 115.89-140.74Q122.11-139.24 125.53-137.96L125.53-137.96L123.39-123.39Q111.82-128.32 100.58-131.96Q89.33-135.60 75.41-135.60L75.41-135.60Q52.70-130.46 40.70-113.22Q28.71-95.97 28.71-70.48L28.71-70.48Q28.71-49.06 36.52-34.38Q44.34-19.71 57.84-12.32Q71.34-4.93 88.69-4.93L88.69-4.93Q100.04-4.93 111.18-7.82Q122.32-10.71 128.96-16.49L128.96-16.49L128.96-4.71Q122.53-2.14 114.61-0.54Q106.68 1.07 98.86 1.82Q91.04 2.57 84.62 2.57Z" transform="translate(0 203) " fill="rgb(215, 191, 173)" stroke="rgb(215, 191, 173)" stroke-width="0.357" data-glyph-w="135.38703999999998" data-glyph-h="246.78144" data-glyph-ascender="198.79616" data-glyph-descender="-47.985279999999996" data-kerning="0"></path></g></svg>
                </g>
              </g>
    </svg>