<svg id="visual" viewBox="0 0 900 600" width="900" height="600" xmlns="http://www.w3.org/2000/svg" xmlns:xlink="http://www.w3.org/1999/xlink" version="1.1"><rect x="0" y="0" width="900" height="600" fill="#001122"></rect><defs><linearGradient id="grad1_0" x1="33.3%" y1="0%" x2="100%" y2="100%"><stop offset="20%" stop-color="#ffffff" stop-opacity="1"></stop><stop offset="80%" stop-color="#ffffff" stop-opacity="1"></stop></linearGradient></defs><defs><linearGradient id="grad1_1" x1="33.3%" y1="0%" x2="100%" y2="100%"><stop offset="20%" stop-color="#ffffff" stop-opacity="1"></stop><stop offset="80%" stop-color="#a2a7ae" stop-opacity="1"></stop></linearGradient></defs><defs><linearGradient id="grad1_2" x1="33.3%" y1="0%" x2="100%" y2="100%"><stop offset="20%" stop-color="#4e5664" stop-opacity="1"></stop><stop offset="80%" stop-color="#a2a7ae" stop-opacity="1"></stop></linearGradient></defs><defs><linearGradient id="grad1_3" x1="33.3%" y1="0%" x2="100%" y2="100%"><stop offset="20%" stop-color="#4e5664" stop-opacity="1"></stop><stop offset="80%" stop-color="#001122" stop-opacity="1"></stop></linearGradient></defs><defs><linearGradient id="grad2_0" x1="0%" y1="0%" x2="66.7%" y2="100%"><stop offset="20%" stop-color="#ffffff" stop-opacity="1"></stop><stop offset="80%" stop-color="#ffffff" stop-opacity="1"></stop></linearGradient></defs><defs><linearGradient id="grad2_1" x1="0%" y1="0%" x2="66.7%" y2="100%"><stop offset="20%" stop-color="#a2a7ae" stop-opacity="1"></stop><stop offset="80%" stop-color="#ffffff" stop-opacity="1"></stop></linearGradient></defs><defs><linearGradient id="grad2_2" x1="0%" y1="0%" x2="66.7%" y2="100%"><stop offset="20%" stop-color="#a2a7ae" stop-opacity="1"></stop><stop offset="80%" stop-color="#4e5664" stop-opacity="1"></stop></linearGradient></defs><defs><linearGradient id="grad2_3" x1="0%" y1="0%" x2="66.7%" y2="100%"><stop offset="20%" stop-color="#001122" stop-opacity="1"></stop><stop offset="80%" stop-color="#4e5664" stop-opacity="1"></stop></linearGradient></defs><g transform="translate(900, 0)"><path d="M0 359C-36.3 362.7 -72.6 366.3 -121.1 372.8C-169.7 379.3 -230.4 388.7 -265.7 365.7C-301 342.7 -310.9 287.4 -339.8 246.9C-368.7 206.4 -416.7 180.7 -437.2 142.1C-457.7 103.4 -450.9 51.7 -444 0L0 0Z" fill="#273242"></path><path d="M0 269.3C-27.2 272 -54.5 274.7 -90.9 279.6C-127.2 284.5 -172.8 291.5 -199.3 274.3C-225.7 257 -233.1 215.5 -254.8 185.2C-276.5 154.8 -312.5 135.5 -327.9 106.5C-343.3 77.5 -338.2 38.8 -333 0L0 0Z" fill="#777d88"></path><path d="M0 179.5C-18.2 181.3 -36.3 183.2 -60.6 186.4C-84.8 189.7 -115.2 194.3 -132.8 182.8C-150.5 171.3 -155.4 143.7 -169.9 123.4C-184.4 103.2 -208.3 90.4 -218.6 71C-228.9 51.7 -225.4 25.8 -222 0L0 0Z" fill="#d0d2d6"></path><path d="M0 89.8C-9.1 90.7 -18.2 91.6 -30.3 93.2C-42.4 94.8 -57.6 97.2 -66.4 91.4C-75.2 85.7 -77.7 71.8 -84.9 61.7C-92.2 51.6 -104.2 45.2 -109.3 35.5C-114.4 25.8 -112.7 12.9 -111 0L0 0Z" fill="#ffffff"></path></g><g transform="translate(0, 600)"><path d="M0 -459.7C39.8 -432.5 79.7 -405.4 128.2 -394.7C176.8 -384 234.1 -389.8 261 -359.2C287.9 -328.6 284.4 -261.7 298.5 -216.9C312.6 -172.1 344.3 -149.6 360.5 -117.1C376.6 -84.7 377.3 -42.3 378 0L0 0Z" fill="#273242"></path><path d="M0 -344.8C29.9 -324.4 59.8 -304 96.2 -296C132.6 -288 175.6 -292.3 195.7 -269.4C215.9 -246.5 213.3 -196.2 223.9 -162.7C234.5 -129.1 258.2 -112.2 270.3 -87.8C282.5 -63.5 283 -31.8 283.5 0L0 0Z" fill="#777d88"></path><path d="M0 -229.9C19.9 -216.3 39.8 -202.7 64.1 -197.3C88.4 -192 117 -194.9 130.5 -179.6C143.9 -164.3 142.2 -130.8 149.3 -108.4C156.3 -86.1 172.1 -74.8 180.2 -58.6C188.3 -42.3 188.7 -21.2 189 0L0 0Z" fill="#d0d2d6"></path><path d="M0 -114.9C10 -108.1 19.9 -101.3 32.1 -98.7C44.2 -96 58.5 -97.4 65.2 -89.8C72 -82.2 71.1 -65.4 74.6 -54.2C78.2 -43 86.1 -37.4 90.1 -29.3C94.2 -21.2 94.3 -10.6 94.5 0L0 0Z" fill="#ffffff"></path></g></svg>